<?xml version="1.0" standalone="no"?>
<!DOCTYPE svg PUBLIC "-//W3C//DTD SVG 20010904//EN"
 "http://www.w3.org/TR/2001/REC-SVG-20010904/DTD/svg10.dtd">
<svg version="1.0" xmlns="http://www.w3.org/2000/svg"
 width="171.000000pt" height="225.000000pt" viewBox="0 0 171.000000 225.000000"
 preserveAspectRatio="xMidYMid meet">

<g transform="translate(0.000000,225.000000) scale(0.100000,-0.100000)"
fill="#000000" stroke="none">
<path d="M745 2010 c-44 -4 -93 -10 -110 -14 -41 -11 -118 -38 -130 -46 -5 -4
-21 -11 -35 -15 -32 -9 -127 -71 -137 -89 -4 -8 -22 -30 -40 -49 -31 -35 -69
-97 -58 -97 4 0 25 13 49 29 23 16 71 42 106 59 137 63 223 81 422 89 182 6
213 2 405 -57 140 -43 263 -111 263 -146 0 -19 -4 -21 -155 -44 -71 -11 -182
-28 -245 -39 -157 -27 -418 -41 -641 -35 -203 6 -223 3 -232 -43 -7 -37 2 -46
79 -82 85 -40 155 -47 754 -76 441 -21 460 -28 295 -105 -197 -92 -393 -131
-635 -125 -144 4 -319 55 -434 129 -44 28 -58 45 -88 107 -36 73 -37 74 -47
46 -6 -16 -11 -38 -11 -49 0 -11 -13 -59 -29 -107 -16 -47 -37 -140 -47 -206
-15 -105 -15 -140 -5 -285 10 -138 18 -186 49 -295 36 -127 37 -134 37 -297
l0 -168 335 0 336 0 11 29 c11 29 11 30 89 28 78 -2 79 -2 82 -29 l3 -28 337
0 337 0 -3 77 c-5 97 22 307 43 339 13 20 15 80 15 419 0 233 -4 395 -9 395
-16 0 -39 81 -46 155 -8 100 -38 206 -81 289 -39 77 -145 210 -204 258 -87 70
-346 102 -625 78z m405 -550 c0 -6 -47 -10 -122 -10 -83 0 -118 3 -108 10 20
13 230 13 230 0z m-307 -7 c-13 -2 -35 -2 -50 0 -16 2 -5 4 22 4 28 0 40 -2
28 -4z"/>
</g>
</svg>
